<svg width="193" height="183" viewBox="0 0 193 183" fill="none" xmlns="http://www.w3.org/2000/svg">
<g filter="url(#filter0_d_72_3)">
<circle cx="96.5" cy="91.5" r="81.5" fill="#EAC3C3"/>
</g>
<path d="M125.875 127C118.419 127 111.01 125.167 103.646 121.5C96.2819 117.833 89.6667 113.067 83.8 107.2C77.9333 101.333 73.1667 94.7181 69.5 87.3542C65.8333 79.9903 64 72.5806 64 65.125C64 63.9639 64.3972 62.9861 65.1917 62.1917C65.9861 61.3972 66.9639 61 68.125 61H80.9583C81.8139 61 82.5625 61.2903 83.2042 61.8708C83.8458 62.4514 84.2583 63.2306 84.4417 64.2083L86.9167 75.7583C87.0389 76.6139 87.0236 77.3931 86.8708 78.0958C86.7181 78.7986 86.3972 79.3944 85.9083 79.8833L76.7417 89.1417C80.1639 94.825 83.9986 99.775 88.2458 103.992C92.4931 108.208 97.3056 111.783 102.683 114.717L111.392 105.733C112.003 105.061 112.706 104.588 113.5 104.313C114.294 104.038 115.089 103.992 115.883 104.175L126.792 106.558C127.708 106.742 128.472 107.2 129.083 107.933C129.694 108.667 130 109.522 130 110.5V122.875C130 124.036 129.603 125.014 128.808 125.808C128.014 126.603 127.036 127 125.875 127ZM73.9917 84.1L81.4167 76.5833L79.3083 66.5H69.5C69.5 68.8833 69.8667 71.4958 70.6 74.3375C71.3333 77.1792 72.4639 80.4333 73.9917 84.1ZM107.817 117.375C110.322 118.536 113.042 119.483 115.975 120.217C118.908 120.95 121.75 121.378 124.5 121.5V111.692L115.058 109.767L107.817 117.375Z" fill="#D23737"/>
<defs>
<filter id="filter0_d_72_3" x="11" y="10" width="171" height="171" filterUnits="userSpaceOnUse" color-interpolation-filters="sRGB">
<feFlood flood-opacity="0" result="BackgroundImageFix"/>
<feColorMatrix in="SourceAlpha" type="matrix" values="0 0 0 0 0 0 0 0 0 0 0 0 0 0 0 0 0 0 127 0" result="hardAlpha"/>
<feOffset dy="4"/>
<feGaussianBlur stdDeviation="2"/>
<feComposite in2="hardAlpha" operator="out"/>
<feColorMatrix type="matrix" values="0 0 0 0 0 0 0 0 0 0 0 0 0 0 0 0 0 0 0.25 0"/>
<feBlend mode="normal" in2="BackgroundImageFix" result="effect1_dropShadow_72_3"/>
<feBlend mode="normal" in="SourceGraphic" in2="effect1_dropShadow_72_3" result="shape"/>
</filter>
</defs>
</svg>
