<svg width="41" height="41" viewBox="0 0 41 41" fill="none" xmlns="http://www.w3.org/2000/svg">
<mask id="mask0_258_86" style="mask-type:alpha" maskUnits="userSpaceOnUse" x="0" y="0" width="41" height="41">
<rect width="40.4409" height="40.4409" fill="#D9D9D9"/>
</mask>
<g mask="url(#mask0_258_86)">
<path d="M17.8614 27.9717L29.741 16.0922L27.3819 13.7331L17.8614 23.2536L13.0591 18.4512L10.7 20.8103L17.8614 27.9717ZM20.2205 37.0709C17.8895 37.0709 15.699 36.6283 13.6489 35.7431C11.5987 34.859 9.81539 33.6587 8.29885 32.1421C6.78232 30.6256 5.58201 28.8423 4.69793 26.7921C3.81272 24.742 3.37012 22.5515 3.37012 20.2205C3.37012 17.8895 3.81272 15.699 4.69793 13.6489C5.58201 11.5987 6.78232 9.81539 8.29885 8.29885C9.81539 6.78232 11.5987 5.58145 13.6489 4.69624C15.699 3.81216 17.8895 3.37012 20.2205 3.37012C22.5515 3.37012 24.742 3.81216 26.7921 4.69624C28.8423 5.58145 30.6256 6.78232 32.1421 8.29885C33.6587 9.81539 34.859 11.5987 35.7431 13.6489C36.6283 15.699 37.0709 17.8895 37.0709 20.2205C37.0709 22.5515 36.6283 24.742 35.7431 26.7921C34.859 28.8423 33.6587 30.6256 32.1421 32.1421C30.6256 33.6587 28.8423 34.859 26.7921 35.7431C24.742 36.6283 22.5515 37.0709 20.2205 37.0709ZM20.2205 33.7008C23.9838 33.7008 27.1713 32.3949 29.7831 29.7831C32.3949 27.1713 33.7008 23.9838 33.7008 20.2205C33.7008 16.4572 32.3949 13.2697 29.7831 10.6579C27.1713 8.0461 23.9838 6.74019 20.2205 6.74019C16.4572 6.74019 13.2697 8.0461 10.6579 10.6579C8.0461 13.2697 6.74019 16.4572 6.74019 20.2205C6.74019 23.9838 8.0461 27.1713 10.6579 29.7831C13.2697 32.3949 16.4572 33.7008 20.2205 33.7008Z" fill="#1A8C10"/>
</g>
</svg>
