<svg width="187" height="187" viewBox="0 0 187 187" fill="none" xmlns="http://www.w3.org/2000/svg">
<g filter="url(#filter0_d_256_63)">
<circle cx="93.5" cy="89.5" r="81.5" fill="#CFEAC3"/>
</g>
<mask id="mask0_256_63" style="mask-type:alpha" maskUnits="userSpaceOnUse" x="50" y="47" width="88" height="88">
<rect x="50" y="47" width="88" height="88" fill="#D9D9D9"/>
</mask>
<g mask="url(#mask0_256_63)">
<path d="M90.4256 124V116.117C87.1867 115.383 84.3914 113.978 82.0399 111.9C79.6859 109.822 77.9589 106.889 76.8589 103.1L83.6422 100.35C84.5589 103.283 85.9192 105.514 87.7232 107.042C89.5248 108.569 91.8922 109.333 94.8256 109.333C97.3311 109.333 99.4553 108.769 101.198 107.639C102.939 106.508 103.809 104.75 103.809 102.367C103.809 100.228 103.137 98.5313 101.792 97.2773C100.448 96.0258 97.3311 94.6056 92.4422 93.0167C87.1867 91.3667 83.5811 89.3964 81.6256 87.106C79.67 84.8131 78.6922 82.0167 78.6922 78.7167C78.6922 74.7444 79.9756 71.6583 82.5422 69.4583C85.1089 67.2583 87.7367 66.0056 90.4256 65.7V58H97.7589V65.7C100.814 66.1889 103.336 67.3036 105.323 69.044C107.308 70.7869 108.759 72.9111 109.676 75.4167L102.892 78.35C102.159 76.3944 101.12 74.9278 99.7756 73.95C98.4311 72.9722 96.5978 72.4833 94.2756 72.4833C91.5867 72.4833 89.5394 73.0798 88.1339 74.2727C86.7283 75.4631 86.0256 76.9444 86.0256 78.7167C86.0256 80.7333 86.9422 82.3222 88.7756 83.4833C90.6089 84.6444 93.7867 85.8667 98.3089 87.15C102.526 88.3722 105.719 90.3119 107.89 92.969C110.058 95.6286 111.142 98.7 111.142 102.183C111.142 106.522 109.859 109.822 107.292 112.083C104.726 114.344 101.548 115.75 97.7589 116.3V124H90.4256Z" fill="#1A8C10"/>
</g>
<defs>
<filter id="filter0_d_256_63" x="0" y="0" width="187" height="187" filterUnits="userSpaceOnUse" color-interpolation-filters="sRGB">
<feFlood flood-opacity="0" result="BackgroundImageFix"/>
<feColorMatrix in="SourceAlpha" type="matrix" values="0 0 0 0 0 0 0 0 0 0 0 0 0 0 0 0 0 0 127 0" result="hardAlpha"/>
<feMorphology radius="2" operator="dilate" in="SourceAlpha" result="effect1_dropShadow_256_63"/>
<feOffset dy="4"/>
<feGaussianBlur stdDeviation="5"/>
<feComposite in2="hardAlpha" operator="out"/>
<feColorMatrix type="matrix" values="0 0 0 0 0 0 0 0 0 0 0 0 0 0 0 0 0 0 0.25 0"/>
<feBlend mode="normal" in2="BackgroundImageFix" result="effect1_dropShadow_256_63"/>
<feBlend mode="normal" in="SourceGraphic" in2="effect1_dropShadow_256_63" result="shape"/>
</filter>
</defs>
</svg>
